<?xml version="1.0" standalone="no"?>
<!DOCTYPE svg PUBLIC "-//W3C//DTD SVG 20010904//EN"
 "http://www.w3.org/TR/2001/REC-SVG-20010904/DTD/svg10.dtd">
<svg version="1.0" xmlns="http://www.w3.org/2000/svg"
 width="293.000000pt" height="293.000000pt" viewBox="0 0 293.000000 293.000000"
 preserveAspectRatio="xMidYMid meet">
<metadata>
Created by potrace 1.11, written by Peter Selinger 2001-2013
</metadata>
<g transform="translate(0.000000,293.000000) scale(0.100000,-0.100000)"
fill="#000000" stroke="none">
<path d="M225 2920 c3 -5 8 -10 11 -10 2 0 4 5 4 10 0 6 -5 10 -11 10 -5 0 -7
-4 -4 -10z"/>
<path d="M536 2915 c4 -8 12 -15 20 -15 8 0 14 7 14 15 0 8 -9 15 -20 15 -13
0 -18 -5 -14 -15z"/>
<path d="M1292 2914 c1 -9 9 -19 16 -22 9 -3 13 2 10 14 -1 9 -9 19 -16 22 -9
3 -13 -2 -10 -14z"/>
<path d="M1120 2900 c0 -14 7 -20 21 -20 15 0 19 4 15 16 -3 9 -6 18 -6 20 0
2 -7 4 -15 4 -8 0 -15 -9 -15 -20z"/>
<path d="M965 2900 c3 -5 10 -10 16 -10 5 0 9 5 9 10 0 6 -7 10 -16 10 -8 0
-12 -4 -9 -10z"/>
<path d="M0 2878 c0 -18 18 -34 28 -24 3 4 -2 14 -11 23 -16 16 -17 16 -17 1z"/>
<path d="M367 2874 c-4 -4 -4 -10 -1 -15 6 -10 34 0 34 12 0 10 -24 12 -33 3z"/>
<path d="M540 2872 c0 -5 14 -12 30 -14 19 -3 29 -1 27 6 -4 14 -57 21 -57 8z"/>
<path d="M80 2860 c-12 -8 -9 -10 13 -10 15 0 27 5 27 10 0 13 -20 13 -40 0z"/>
<path d="M1400 2850 c-16 -6 -7 -7 28 -3 48 5 52 4 52 -16 0 -27 17 -27 25 -1
6 19 8 19 41 5 30 -12 38 -13 49 -1 12 12 9 15 -17 20 -42 8 -148 6 -178 -4z"/>
<path d="M1142 2838 c-18 -18 -15 -41 4 -34 9 3 18 6 20 6 2 0 4 9 4 20 0 23
-10 26 -28 8z"/>
<path d="M147 2834 c-14 -14 -7 -35 11 -32 9 2 17 10 17 17 0 16 -18 25 -28
15z"/>
<path d="M295 2820 c-3 -5 1 -10 9 -10 9 0 16 5 16 10 0 6 -4 10 -9 10 -6 0
-13 -4 -16 -10z"/>
<path d="M690 2820 c0 -5 4 -10 9 -10 6 0 13 5 16 10 3 6 -1 10 -9 10 -9 0
-16 -4 -16 -10z"/>
<path d="M1270 2816 c0 -15 18 -31 26 -23 7 7 -7 37 -17 37 -5 0 -9 -6 -9 -14z"/>
<path d="M527 2805 c-9 -8 -20 -15 -26 -15 -16 0 -13 -17 4 -24 9 -3 15 0 15
9 0 8 6 15 14 15 18 0 30 17 17 24 -5 4 -16 -1 -24 -9z"/>
<path d="M1426 2786 c7 -19 38 -22 32 -3 -3 6 -12 13 -21 15 -12 2 -15 -1 -11
-12z"/>
<path d="M781 2776 c-8 -10 -9 -16 -1 -21 5 -3 13 1 16 10 9 22 -1 29 -15 11z"/>
<path d="M1522 2778 c-14 -14 -16 -28 -3 -28 9 0 24 30 18 36 -2 2 -9 -2 -15
-8z"/>
<path d="M1190 2770 c0 -5 5 -10 10 -10 6 0 10 5 10 10 0 6 -4 10 -10 10 -5 0
-10 -4 -10 -10z"/>
<path d="M830 2760 c0 -5 10 -10 23 -10 18 0 19 2 7 10 -19 13 -30 13 -30 0z"/>
<path d="M282 2748 c3 -7 13 -15 22 -16 12 -3 17 1 14 10 -3 7 -13 15 -22 16
-12 3 -17 -1 -14 -10z"/>
<path d="M535 2751 c-8 -15 3 -31 21 -31 9 0 14 7 12 17 -4 20 -24 28 -33 14z"/>
<path d="M97 2744 c-14 -14 -7 -35 11 -32 9 2 17 10 17 17 0 16 -18 25 -28 15z"/>
<path d="M346 2721 c-7 -10 22 -37 30 -28 9 8 -3 37 -15 37 -5 0 -12 -4 -15
-9z"/>
<path d="M0 2710 c0 -5 5 -10 10 -10 6 0 10 5 10 10 0 6 -4 10 -10 10 -5 0
-10 -4 -10 -10z"/>
<path d="M592 2704 c1 -9 9 -19 16 -22 9 -3 13 2 10 14 -1 9 -9 19 -16 22 -9
3 -13 -2 -10 -14z"/>
<path d="M790 2711 c0 -17 18 -21 24 -6 3 9 0 15 -9 15 -8 0 -15 -4 -15 -9z"/>
<path d="M876 2711 c-7 -10 22 -37 30 -28 9 8 -3 37 -15 37 -5 0 -12 -4 -15
-9z"/>
<path d="M960 2691 c0 -18 4 -19 39 -12 7 2 -22 31 -30 31 -5 0 -9 -9 -9 -19z"/>
<path d="M145 2690 c-7 -12 2 -30 16 -30 12 0 12 27 0 35 -5 3 -12 1 -16 -5z"/>
<path d="M673 2693 c-22 -8 -14 -23 12 -23 14 0 25 4 25 9 0 11 -21 19 -37 14z"/>
<path d="M422 2668 c5 -32 28 -35 28 -4 0 17 -5 26 -16 26 -10 0 -14 -7 -12
-22z"/>
<path d="M1360 2660 c0 -19 20 -27 33 -13 8 7 -11 33 -24 33 -5 0 -9 -9 -9
-20z"/>
<path d="M300 2660 c-8 -5 -12 -11 -9 -14 2 -3 11 -1 19 4 8 5 12 11 9 14 -2
3 -11 1 -19 -4z"/>
<path d="M1210 2660 c0 -5 5 -10 11 -10 5 0 7 5 4 10 -3 6 -8 10 -11 10 -2 0
-4 -4 -4 -10z"/>
<path d="M186 2651 c-9 -15 23 -36 36 -23 5 5 7 15 4 21 -9 13 -33 14 -40 2z"/>
<path d="M620 2641 c0 -5 7 -14 15 -21 13 -10 15 -9 15 9 0 12 -6 21 -15 21
-8 0 -15 -4 -15 -9z"/>
<path d="M910 2640 c0 -5 5 -10 10 -10 6 0 10 5 10 10 0 6 -4 10 -10 10 -5 0
-10 -4 -10 -10z"/>
<path d="M1040 2640 c0 -5 7 -10 16 -10 8 0 12 5 9 10 -3 6 -10 10 -16 10 -5
0 -9 -4 -9 -10z"/>
<path d="M1560 2631 c0 -14 18 -23 31 -15 8 4 7 9 -2 15 -18 11 -29 11 -29 0z"/>
<path d="M17 2624 c-8 -8 3 -34 14 -34 5 0 9 9 9 20 0 19 -11 26 -23 14z"/>
<path d="M452 2608 c-19 -19 -14 -30 8 -18 11 6 20 15 20 20 0 14 -14 12 -28
-2z"/>
<path d="M1232 2608 c3 -7 13 -15 24 -17 16 -3 17 -1 5 13 -16 19 -34 21 -29
4z"/>
<path d="M370 2597 c0 -18 28 -42 37 -33 9 8 -9 38 -25 44 -7 2 -12 -3 -12
-11z"/>
<path d="M220 2581 c0 -5 7 -11 15 -15 8 -3 15 -1 15 3 0 5 -7 11 -15 15 -8 3
-15 1 -15 -3z"/>
<path d="M60 2572 c0 -5 9 -12 21 -15 13 -3 19 -1 16 6 -5 15 -37 22 -37 9z"/>
<path d="M590 2570 c0 -5 10 -10 23 -10 18 0 19 2 7 10 -19 13 -30 13 -30 0z"/>
<path d="M1117 2573 c-15 -14 -6 -23 23 -23 22 0 28 4 24 15 -6 15 -35 20 -47
8z"/>
<path d="M1284 2558 c-8 -25 15 -51 35 -39 8 5 11 16 7 29 -10 29 -34 35 -42
10z"/>
<path d="M1423 2563 c-7 -3 -13 -8 -13 -13 0 -13 31 -21 47 -11 14 8 14 10 -3
18 -10 6 -25 8 -31 6z"/>
<path d="M120 2543 c0 -13 5 -23 10 -23 13 0 13 11 0 30 -8 12 -10 11 -10 -7z"/>
<path d="M980 2541 c0 -12 6 -21 16 -21 9 0 14 7 12 17 -5 25 -28 28 -28 4z"/>
<path d="M660 2531 c0 -5 5 -13 10 -16 6 -3 10 -2 10 4 0 5 -4 13 -10 16 -5 3
-10 2 -10 -4z"/>
<path d="M20 2518 c0 -18 18 -34 28 -24 3 4 -2 14 -11 23 -16 16 -17 16 -17 1z"/>
<path d="M210 2510 c0 -11 7 -20 15 -20 8 0 15 6 15 14 0 8 -7 16 -15 20 -10
4 -15 -1 -15 -14z"/>
<path d="M860 2504 c0 -17 22 -14 28 4 2 7 -3 12 -12 12 -9 0 -16 -7 -16 -16z"/>
<path d="M570 2495 c0 -8 7 -15 15 -15 9 0 12 6 9 15 -4 8 -10 15 -15 15 -5 0
-9 -7 -9 -15z"/>
<path d="M780 2495 c0 -9 9 -15 21 -15 18 0 19 2 9 15 -7 8 -16 15 -21 15 -5
0 -9 -7 -9 -15z"/>
<path d="M490 2485 c-14 -16 -10 -18 14 -9 9 3 16 10 16 15 0 14 -16 11 -30
-6z"/>
<path d="M1430 2491 c0 -5 5 -13 10 -16 6 -3 10 -2 10 4 0 5 -4 13 -10 16 -5
3 -10 2 -10 -4z"/>
<path d="M1267 2483 c-12 -11 -7 -21 13 -26 11 -3 20 -2 20 3 0 12 -26 31 -33
23z"/>
<path d="M1130 2471 c0 -5 7 -11 15 -15 9 -3 15 0 15 9 0 8 -7 15 -15 15 -8 0
-15 -4 -15 -9z"/>
<path d="M685 2460 c-3 -5 3 -10 14 -10 12 0 21 5 21 10 0 6 -6 10 -14 10 -8
0 -18 -4 -21 -10z"/>
<path d="M919 2453 c-13 -15 -12 -15 9 -4 23 12 28 21 13 21 -5 0 -15 -7 -22
-17z"/>
<path d="M284 2449 c-8 -14 18 -31 30 -19 9 9 0 30 -14 30 -5 0 -12 -5 -16
-11z"/>
<path d="M956 2452 c-2 -4 -1 -14 4 -22 7 -11 12 -12 21 -3 6 6 8 16 5 22 -8
13 -23 14 -30 3z"/>
<path d="M1050 2441 c0 -12 6 -21 16 -21 9 0 14 7 12 17 -5 25 -28 28 -28 4z"/>
<path d="M432 2434 c2 -11 11 -20 22 -22 13 -3 17 1 14 14 -2 11 -11 20 -22
22 -13 3 -17 -1 -14 -14z"/>
<path d="M620 2440 c0 -5 4 -10 9 -10 6 0 13 5 16 10 3 6 -1 10 -9 10 -9 0
-16 -4 -16 -10z"/>
<path d="M140 2431 c0 -13 26 -32 33 -24 8 7 -11 33 -24 33 -5 0 -9 -4 -9 -9z"/>
<path d="M861 2432 c-11 -4 -9 -9 7 -21 30 -22 72 -112 62 -131 -5 -9 -2 -20
6 -28 12 -11 14 -10 14 4 0 14 2 14 16 3 36 -30 35 -55 -5 -192 -44 -151 -61
-220 -61 -244 0 -15 2 -14 14 3 14 18 15 18 21 1 6 -13 -7 -33 -47 -75 -29
-31 -65 -73 -78 -92 -14 -19 -28 -39 -33 -45 -10 -12 -65 -92 -115 -166 -21
-31 -69 -126 -106 -210 -37 -85 -90 -201 -118 -258 -57 -119 -58 -124 -12
-303 25 -100 31 -232 15 -328 l-7 -45 -8 48 c-5 26 -5 67 -2 91 9 57 -17 128
-38 105 -7 -8 -23 -38 -35 -68 -21 -49 -22 -59 -10 -95 7 -23 15 -72 18 -111
5 -56 9 -70 24 -73 12 -2 22 7 31 29 l14 34 5 -65 c3 -36 15 -95 28 -132 20
-57 27 -68 46 -68 28 0 28 5 6 111 -14 68 -17 132 -16 338 2 307 13 424 57
601 59 236 132 405 233 537 18 24 33 47 33 51 0 15 229 223 293 267 34 23 94
55 132 70 63 25 125 54 237 111 20 11 40 25 43 32 3 8 -15 2 -42 -13 -60 -34
-320 -137 -352 -140 -14 -1 -28 -10 -32 -21 -4 -11 -39 -43 -77 -71 -65 -47
-72 -50 -77 -32 -4 10 -11 16 -17 13 -7 -4 -8 5 -3 27 14 67 66 246 100 344 4
12 4 15 -2 8 -9 -13 -65 54 -106 129 -38 70 -42 75 -56 70z"/>
<path d="M757 2423 c-11 -10 -8 -20 8 -27 10 -4 15 1 15 14 0 20 -11 26 -23
13z"/>
<path d="M1098 2424 c-3 -5 -2 -20 2 -34 5 -22 7 -23 13 -7 7 19 -6 56 -15 41z"/>
<path d="M1 2404 c0 -11 3 -14 6 -6 3 7 2 16 -1 19 -3 4 -6 -2 -5 -13z"/>
<path d="M273 2408 c-18 -23 -21 -57 -7 -69 18 -15 52 -3 36 13 -6 6 -8 24 -5
39 6 30 -7 39 -24 17z"/>
<path d="M1452 2403 c4 -20 27 -27 47 -14 19 12 4 31 -25 31 -19 0 -25 -5 -22
-17z"/>
<path d="M196 2401 c-3 -5 1 -14 9 -21 12 -10 15 -10 15 3 0 19 -16 31 -24 18z"/>
<path d="M1026 2384 c-24 -23 -19 -35 9 -22 26 12 31 23 16 33 -5 3 -17 -2
-25 -11z"/>
<path d="M1170 2392 c0 -12 19 -26 26 -19 2 2 -2 10 -11 17 -9 8 -15 8 -15 2z"/>
<path d="M680 2376 c0 -9 5 -16 10 -16 6 0 10 4 10 9 0 6 -4 13 -10 16 -5 3
-10 -1 -10 -9z"/>
<path d="M22 2368 c7 -19 38 -22 38 -4 0 10 -9 16 -21 16 -12 0 -19 -5 -17
-12z"/>
<path d="M940 2365 c0 -8 7 -15 15 -15 9 0 12 6 9 15 -4 8 -10 15 -15 15 -5 0
-9 -7 -9 -15z"/>
<path d="M1067 2345 c-14 -30 -20 -35 -42 -29 -14 3 -25 2 -25 -4 0 -13 25
-33 33 -26 3 3 4 -5 1 -18 -2 -12 9 6 26 41 17 35 29 65 27 67 -2 2 -11 -12
-20 -31z"/>
<path d="M1256 2366 c3 -8 12 -12 20 -9 17 6 9 23 -11 23 -8 0 -12 -6 -9 -14z"/>
<path d="M344 2355 c-18 -15 -18 -15 5 -13 14 2 26 9 29 16 5 17 -10 15 -34
-3z"/>
<path d="M1355 2360 c-3 -5 -3 -15 1 -21 6 -11 23 6 24 24 0 10 -18 9 -25 -3z"/>
<path d="M157 2343 c-12 -11 -8 -23 8 -23 8 0 15 7 15 15 0 16 -12 20 -23 8z"/>
<path d="M0 2310 c0 -17 9 -45 21 -61 17 -24 18 -29 5 -29 -9 0 -16 -4 -16 -9
0 -10 30 -25 46 -23 6 1 19 -7 29 -18 24 -27 35 -25 35 6 0 21 -4 24 -20 19
-22 -7 -26 5 -8 23 15 15 -9 45 -30 37 -18 -7 -43 24 -36 46 2 9 -2 22 -11 29
-13 11 -15 8 -15 -20z"/>
<path d="M470 2322 c0 -11 7 -23 16 -26 11 -4 15 0 12 16 -4 28 -28 36 -28 10z"/>
<path d="M578 2332 c-10 -2 -18 -8 -18 -13 0 -11 11 -11 30 1 18 11 11 18 -12
12z"/>
<path d="M740 2330 c0 -5 7 -10 15 -10 8 0 15 5 15 10 0 6 -7 10 -15 10 -8 0
-15 -4 -15 -10z"/>
<path d="M820 2320 c-12 -8 -10 -10 8 -10 13 0 20 4 17 10 -7 12 -6 12 -25 0z"/>
<path d="M620 2301 c0 -12 6 -21 16 -21 9 0 14 7 12 17 -5 25 -28 28 -28 4z"/>
<path d="M873 2309 c-25 -9 -31 -29 -9 -29 14 0 42 27 35 34 -2 2 -14 0 -26
-5z"/>
<path d="M1180 2300 c0 -5 7 -10 16 -10 8 0 12 5 9 10 -3 6 -10 10 -16 10 -5
0 -9 -4 -9 -10z"/>
<path d="M1305 2287 c-12 -10 -14 -16 -7 -21 14 -8 55 17 45 27 -9 10 -17 9
-38 -6z"/>
<path d="M435 2270 c-3 -5 1 -10 9 -10 9 0 16 5 16 10 0 6 -4 10 -9 10 -6 0
-13 -4 -16 -10z"/>
<path d="M670 2250 c-8 -5 -12 -12 -9 -15 4 -3 12 1 19 10 14 17 11 19 -10 5z"/>
<path d="M1212 2251 c2 -7 7 -12 11 -12 12 1 9 15 -3 20 -7 2 -11 -2 -8 -8z"/>
<path d="M502 2228 c6 -18 28 -21 28 -4 0 9 -7 16 -16 16 -9 0 -14 -5 -12 -12z"/>
<path d="M1090 2225 c-10 -12 -9 -15 8 -15 11 0 22 7 26 15 3 9 0 15 -8 15 -7
0 -19 -7 -26 -15z"/>
<path d="M280 2220 c-8 -5 -11 -12 -7 -16 4 -4 15 0 24 9 18 18 8 23 -17 7z"/>
<path d="M600 2215 c0 -8 9 -15 20 -15 13 0 18 5 14 15 -4 8 -12 15 -20 15 -8
0 -14 -7 -14 -15z"/>
<path d="M845 2220 c-3 -6 1 -13 10 -16 19 -8 30 0 20 15 -8 14 -22 14 -30 1z"/>
<path d="M362 2208 c6 -18 28 -21 28 -4 0 9 -7 16 -16 16 -9 0 -14 -5 -12 -12z"/>
<path d="M1425 2210 c3 -5 13 -10 21 -10 8 0 12 5 9 10 -3 6 -13 10 -21 10 -8
0 -12 -4 -9 -10z"/>
<path d="M1257 2199 c7 -7 15 -10 18 -7 3 3 -2 9 -12 12 -14 6 -15 5 -6 -5z"/>
<path d="M142 2176 c2 -16 9 -31 16 -34 17 -5 15 20 -3 44 -15 18 -15 18 -13
-10z"/>
<path d="M212 2184 c1 -9 9 -19 16 -22 9 -3 13 2 10 14 -1 9 -9 19 -16 22 -9
3 -13 -2 -10 -14z"/>
<path d="M655 2189 c-10 -15 1 -23 20 -15 9 3 13 10 10 16 -8 13 -22 13 -30
-1z"/>
<path d="M514 2179 c-8 -14 14 -29 33 -22 18 7 17 20 -3 27 -21 8 -22 8 -30
-5z"/>
<path d="M932 2178 c5 -15 37 -18 41 -3 1 6 -9 12 -22 13 -16 3 -22 -1 -19
-10z"/>
<path d="M1022 2168 c2 -12 9 -23 16 -26 18 -6 15 35 -4 42 -11 4 -15 0 -12
-16z"/>
<path d="M1150 2170 c0 -22 7 -25 29 -11 16 10 6 31 -15 31 -8 0 -14 -9 -14
-20z"/>
<path d="M40 2146 c0 -9 7 -16 16 -16 17 0 14 22 -4 28 -7 2 -12 -3 -12 -12z"/>
<path d="M610 2154 c-94 -14 -127 -27 -170 -65 l-45 -40 53 35 c55 36 107 56
152 56 14 0 32 5 40 10 15 10 14 10 -30 4z"/>
<path d="M396 2137 c2 -7 13 -13 24 -14 13 -1 17 3 13 13 -3 8 -14 14 -24 14
-11 0 -16 -5 -13 -13z"/>
<path d="M1090 2142 c0 -5 7 -16 16 -23 14 -12 16 -11 13 5 -4 20 -29 35 -29
18z"/>
<path d="M1300 2146 c0 -2 7 -6 15 -10 8 -3 15 -1 15 4 0 6 -7 10 -15 10 -8 0
-15 -2 -15 -4z"/>
<path d="M287 2131 c-16 -6 -17 -9 -5 -18 9 -8 19 -9 28 -3 20 13 1 30 -23 21z"/>
<path d="M792 2133 c-15 -6 -6 -23 14 -23 8 0 14 7 14 15 0 15 -6 17 -28 8z"/>
<path d="M895 2131 c-3 -5 -1 -12 5 -16 5 -3 10 1 10 9 0 18 -6 21 -15 7z"/>
<path d="M612 2118 c6 -18 28 -21 28 -4 0 9 -7 16 -16 16 -9 0 -14 -5 -12 -12z"/>
<path d="M103 2103 c-18 -6 -16 -33 1 -33 19 0 31 19 20 30 -5 4 -15 5 -21 3z"/>
<path d="M150 2100 c0 -5 9 -14 20 -20 16 -8 20 -8 20 4 0 7 -7 17 -16 20 -21
8 -24 8 -24 -4z"/>
<path d="M217 2094 c-11 -11 -8 -44 3 -44 15 0 24 30 13 41 -5 5 -12 6 -16 3z"/>
<path d="M360 2092 c0 -5 7 -15 15 -22 8 -7 15 -9 15 -6 0 4 -7 14 -15 22 -8
9 -15 11 -15 6z"/>
<path d="M840 2087 c0 -10 8 -17 18 -17 9 0 13 4 7 8 -5 4 -13 11 -17 16 -5 5
-8 2 -8 -7z"/>
<path d="M1363 2078 c-2 -16 1 -17 13 -8 17 15 17 17 1 23 -8 3 -14 -3 -14
-15z"/>
<path d="M7 2083 c-11 -10 6 -33 24 -33 12 0 16 5 13 14 -6 16 -29 28 -37 19z"/>
<path d="M545 2080 c-3 -5 1 -10 9 -10 9 0 16 5 16 10 0 6 -4 10 -9 10 -6 0
-13 -4 -16 -10z"/>
<path d="M1160 2075 c0 -8 5 -15 10 -15 6 0 10 7 10 15 0 8 -4 15 -10 15 -5 0
-10 -7 -10 -15z"/>
<path d="M1290 2061 c0 -6 5 -13 10 -16 6 -3 10 1 10 9 0 9 -4 16 -10 16 -5 0
-10 -4 -10 -9z"/>
<path d="M440 2045 c7 -8 19 -15 27 -15 13 0 13 3 3 15 -7 8 -19 15 -27 15
-13 0 -13 -3 -3 -15z"/>
<path d="M1105 2047 c-4 -10 -3 -23 3 -29 14 -14 21 3 12 27 -7 19 -8 19 -15
2z"/>
<path d="M136 2034 c-10 -26 -7 -34 14 -34 15 0 20 7 20 25 0 28 -24 34 -34 9z"/>
<path d="M665 2039 c-4 -6 -5 -13 -2 -16 7 -7 27 6 27 18 0 12 -17 12 -25 -2z"/>
<path d="M902 2039 c2 -7 10 -15 17 -17 8 -3 12 1 9 9 -2 7 -10 15 -17 17 -8
3 -12 -1 -9 -9z"/>
<path d="M380 2011 c0 -11 4 -21 9 -21 18 0 21 18 6 30 -13 10 -15 9 -15 -9z"/>
<path d="M592 2018 c3 -7 13 -15 24 -17 16 -3 17 -1 5 13 -16 19 -34 21 -29 4z"/>
<path d="M1014 2016 c-8 -22 3 -33 18 -18 9 9 9 15 0 24 -9 9 -13 7 -18 -6z"/>
<path d="M1170 2020 c-8 -5 -11 -12 -7 -16 4 -4 13 -2 19 4 6 6 10 14 7 16 -2
3 -11 1 -19 -4z"/>
<path d="M190 2010 c0 -5 9 -10 19 -10 11 0 23 5 26 10 4 6 -5 10 -19 10 -14
0 -26 -4 -26 -10z"/>
<path d="M35 2000 c-3 -5 -2 -10 4 -10 5 0 13 5 16 10 3 6 2 10 -4 10 -5 0
-13 -4 -16 -10z"/>
<path d="M640 1980 c-8 -5 -11 -12 -8 -16 10 -9 38 3 38 16 0 12 -10 13 -30 0z"/>
<path d="M515 1970 c3 -5 15 -10 26 -10 10 0 19 5 19 10 0 6 -12 10 -26 10
-14 0 -23 -4 -19 -10z"/>
<path d="M157 1963 c-11 -11 -8 -21 9 -27 19 -7 47 12 38 25 -6 11 -38 12 -47
2z"/>
<path d="M330 1961 c0 -6 5 -13 10 -16 6 -3 10 1 10 9 0 9 -4 16 -10 16 -5 0
-10 -4 -10 -9z"/>
<path d="M820 1955 c7 -9 15 -13 17 -11 7 7 -7 26 -19 26 -6 0 -6 -6 2 -15z"/>
<path d="M1260 1950 c19 -13 30 -13 30 0 0 6 -10 10 -22 10 -19 0 -20 -2 -8
-10z"/>
<path d="M1340 1940 c0 -5 5 -10 11 -10 5 0 7 5 4 10 -3 6 -8 10 -11 10 -2 0
-4 -4 -4 -10z"/>
<path d="M30 1931 c0 -5 9 -19 19 -32 18 -22 20 -22 26 -6 4 9 2 24 -5 32 -14
16 -40 20 -40 6z"/>
<path d="M954 1924 c3 -9 6 -18 6 -20 0 -2 7 -4 15 -4 18 0 19 12 3 28 -17 17
-31 15 -24 -4z"/>
<path d="M222 1918 c5 -15 28 -23 28 -10 0 5 -7 13 -16 16 -10 4 -14 1 -12 -6z"/>
<path d="M452 1909 c2 -7 12 -13 22 -15 23 -3 15 20 -8 24 -11 3 -17 -1 -14
-9z"/>
<path d="M293 1893 c9 -9 19 -14 23 -11 10 10 -6 28 -24 28 -15 0 -15 -1 1
-17z"/>
<path d="M360 1900 c-8 -5 -11 -12 -8 -16 10 -9 38 3 38 16 0 12 -10 13 -30 0z"/>
<path d="M850 1895 c-10 -13 -9 -15 9 -15 12 0 21 6 21 15 0 8 -4 15 -9 15 -5
0 -14 -7 -21 -15z"/>
<path d="M545 1890 c-3 -5 1 -10 9 -10 9 0 16 5 16 10 0 6 -4 10 -9 10 -6 0
-13 -4 -16 -10z"/>
<path d="M652 1889 c2 -7 10 -15 17 -17 8 -3 12 1 9 9 -2 7 -10 15 -17 17 -8
3 -12 -1 -9 -9z"/>
<path d="M1160 1892 c0 -12 19 -26 26 -19 2 2 -2 10 -11 17 -9 8 -15 8 -15 2z"/>
<path d="M770 1871 c0 -14 6 -19 20 -18 23 1 25 8 8 25 -17 17 -28 15 -28 -7z"/>
<path d="M115 1871 c-3 -5 -1 -12 4 -15 12 -8 41 3 41 15 0 12 -37 12 -45 0z"/>
<path d="M400 1872 c0 -12 19 -26 26 -19 2 2 -2 10 -11 17 -9 8 -15 8 -15 2z"/>
<path d="M715 1859 c-4 -6 -5 -13 -2 -16 7 -7 27 6 27 18 0 12 -17 12 -25 -2z"/>
<path d="M512 1848 c3 -7 13 -15 22 -16 12 -3 17 1 14 10 -3 7 -13 15 -22 16
-12 3 -17 -1 -14 -10z"/>
<path d="M190 1830 c6 -11 13 -20 15 -20 3 0 5 9 5 20 0 11 -7 20 -15 20 -13
0 -14 -4 -5 -20z"/>
<path d="M330 1836 c0 -9 5 -16 10 -16 6 0 10 4 10 9 0 6 -4 13 -10 16 -5 3
-10 -1 -10 -9z"/>
<path d="M30 1825 c0 -16 27 -32 37 -21 7 7 -16 36 -28 36 -5 0 -9 -7 -9 -15z"/>
<path d="M95 1820 c-7 -12 2 -30 16 -30 5 0 9 9 9 20 0 21 -15 27 -25 10z"/>
<path d="M218 1793 c-31 -31 -39 -34 -52 -24 -13 11 -17 10 -22 -3 -3 -9 -4
-23 -1 -31 4 -8 2 -17 -3 -20 -12 -8 -13 -25 -1 -25 11 0 125 129 119 135 -2
2 -20 -12 -40 -32z"/>
<path d="M632 1818 c2 -6 10 -13 16 -14 7 -1 8 0 2 3 -5 2 -8 9 -4 14 3 5 0 9
-6 9 -7 0 -10 -5 -8 -12z"/>
<path d="M1032 1823 c-10 -4 -10 -8 -1 -19 15 -18 39 -18 39 0 0 16 -19 25
-38 19z"/>
<path d="M1100 1786 c0 -23 16 -27 17 -5 1 10 -2 19 -8 19 -5 0 -9 -6 -9 -14z"/>
<path d="M550 1780 c-12 -8 -11 -10 8 -10 12 0 22 5 22 10 0 13 -11 13 -30 0z"/>
<path d="M792 1783 c-6 -2 -10 -9 -7 -13 7 -11 35 -2 35 11 0 10 -8 10 -28 2z"/>
<path d="M481 1771 c-9 -6 -8 -11 3 -20 15 -13 36 -7 36 9 0 12 -25 19 -39 11z"/>
<path d="M847 1760 c4 -16 8 -18 19 -9 16 13 10 29 -11 29 -8 0 -11 -7 -8 -20z"/>
<path d="M280 1760 c0 -5 9 -10 21 -10 11 0 17 5 14 10 -3 6 -13 10 -21 10 -8
0 -14 -4 -14 -10z"/>
<path d="M350 1741 c0 -6 5 -13 10 -16 6 -3 10 1 10 9 0 9 -4 16 -10 16 -5 0
-10 -4 -10 -9z"/>
<path d="M710 1730 c-12 -8 -10 -10 8 -10 13 0 20 4 17 10 -7 12 -6 12 -25 0z"/>
<path d="M1004 1726 c-91 -17 -114 -25 -114 -38 0 -6 8 -7 18 -3 70 27 271 44
378 31 36 -5 43 -4 27 3 -39 17 -232 22 -309 7z"/>
<path d="M410 1720 c0 -5 7 -10 15 -10 8 0 15 5 15 10 0 6 -7 10 -15 10 -8 0
-15 -4 -15 -10z"/>
<path d="M615 1720 c-8 -13 4 -32 16 -25 12 8 12 35 0 35 -6 0 -13 -4 -16 -10z"/>
<path d="M85 1711 c-10 -17 15 -45 29 -31 7 7 5 15 -6 26 -11 11 -18 13 -23 5z"/>
<path d="M157 1693 c-12 -11 -8 -23 7 -23 7 0 19 7 26 15 10 12 9 15 -7 15
-11 0 -23 -3 -26 -7z"/>
<path d="M490 1684 c0 -9 7 -14 17 -12 25 5 28 28 4 28 -12 0 -21 -6 -21 -16z"/>
<path d="M230 1676 c0 -9 7 -16 16 -16 17 0 14 22 -4 28 -7 2 -12 -3 -12 -12z"/>
<path d="M1115 1680 c-4 -6 5 -10 20 -10 15 0 24 4 20 10 -3 6 -12 10 -20 10
-8 0 -17 -4 -20 -10z"/>
<path d="M905 1671 c-3 -5 0 -13 6 -17 8 -5 9 -3 4 6 -6 9 -2 10 15 5 15 -5
20 -4 16 4 -9 13 -33 14 -41 2z"/>
<path d="M342 1639 c1 -12 9 -24 16 -27 9 -3 13 3 10 19 -1 12 -9 24 -16 27
-9 3 -13 -3 -10 -19z"/>
<path d="M645 1650 c-8 -13 20 -24 42 -16 15 6 15 8 3 16 -20 13 -37 12 -45 0z"/>
<path d="M1040 1650 c0 -5 5 -10 10 -10 6 0 10 5 10 10 0 6 -4 10 -10 10 -5 0
-10 -4 -10 -10z"/>
<path d="M430 1638 c0 -18 18 -34 28 -24 3 4 -2 14 -11 23 -16 16 -17 16 -17
1z"/>
<path d="M691 1581 c-38 -39 -72 -67 -75 -63 -4 3 -23 7 -42 8 -25 0 -34 -3
-34 -15 0 -14 2 -14 10 -1 7 11 10 12 10 2 0 -8 -33 -47 -73 -88 -88 -90 -107
-93 -172 -33 -24 23 -60 65 -79 94 -35 53 -54 65 -133 85 -31 8 -41 15 -37 25
4 9 0 15 -10 15 -9 0 -16 -5 -16 -11 0 -7 -9 -9 -21 -6 -36 10 -15 -16 26 -30
46 -16 77 -43 106 -92 l21 -36 -39 35 c-43 40 -89 73 -115 83 -13 5 -18 1 -18
-13 0 -13 12 -25 38 -35 65 -28 121 -95 185 -223 59 -118 59 -118 47 -604 -10
-423 -21 -622 -36 -661 -6 -16 -1 -18 41 -15 46 3 49 5 62 43 13 35 12 58 -3
187 -16 143 -16 176 5 307 6 42 7 90 1 135 -15 113 -11 205 11 296 33 136 14
199 -104 355 -33 44 -65 87 -70 95 -21 32 79 -79 103 -114 35 -53 65 -86 78
-86 5 0 8 -9 5 -20 -4 -13 1 -26 12 -34 28 -20 31 -100 6 -166 -12 -30 -21
-66 -21 -80 0 -24 0 -24 19 -5 10 11 30 56 46 99 15 44 41 104 59 133 63 108
86 148 86 156 0 17 -22 4 -58 -34 -32 -35 -45 -42 -87 -45 -42 -4 -46 -3 -25
6 13 6 26 13 29 16 10 9 -44 54 -65 54 -13 0 -25 4 -28 9 -4 5 11 7 32 4 47
-6 78 18 162 126 30 39 61 71 68 71 17 0 15 -7 -7 -29 -17 -17 -18 -24 -9 -55
6 -20 15 -36 19 -36 4 0 22 26 39 57 18 32 46 72 62 89 39 41 82 114 68 114
-6 0 -42 -31 -79 -69z"/>
<path d="M947 1623 c-12 -12 -7 -22 8 -17 8 4 15 10 15 15 0 11 -14 12 -23 2z"/>
<path d="M502 1598 c6 -18 28 -21 28 -4 0 9 -7 16 -16 16 -9 0 -14 -5 -12 -12z"/>
<path d="M626 1601 c-3 -5 1 -11 9 -15 9 -3 15 0 15 9 0 16 -16 20 -24 6z"/>
<path d="M172 1579 c2 -6 8 -10 13 -10 5 0 11 4 13 10 2 6 -4 11 -13 11 -9 0
-15 -5 -13 -11z"/>
<path d="M1032 1577 c7 -8 18 -14 24 -14 7 0 10 6 7 14 -3 7 -14 13 -24 13
-16 0 -17 -3 -7 -13z"/>
<path d="M234 1544 c3 -8 6 -18 6 -20 0 -2 5 -4 10 -4 16 0 11 27 -6 34 -12 5
-15 2 -10 -10z"/>
<path d="M300 1540 c-8 -5 -11 -12 -7 -16 4 -4 13 -2 19 4 15 15 7 24 -12 12z"/>
<path d="M1088 1508 c9 -9 15 -9 24 0 9 9 7 12 -12 12 -19 0 -21 -3 -12 -12z"/>
<path d="M359 1494 c-12 -14 -11 -16 5 -13 11 2 21 10 24 17 5 17 -13 15 -29
-4z"/>
<path d="M1050 1501 c0 -5 5 -13 10 -16 6 -3 10 -2 10 4 0 5 -4 13 -10 16 -5
3 -10 2 -10 -4z"/>
<path d="M273 1474 c-7 -18 17 -38 31 -24 11 11 1 40 -14 40 -6 0 -13 -7 -17
-16z"/>
<path d="M25 1430 c3 -5 15 -10 26 -10 11 0 17 5 14 10 -3 6 -15 10 -26 10
-11 0 -17 -4 -14 -10z"/>
<path d="M493 1370 c-50 -46 -52 -50 -42 -79 6 -17 16 -31 21 -31 6 0 27 18
47 40 20 22 42 40 49 40 7 0 15 6 18 13 7 19 -13 67 -28 67 -7 -1 -37 -23 -65
-50z"/>
<path d="M1 1394 c0 -11 3 -14 6 -6 3 7 2 16 -1 19 -3 4 -6 -2 -5 -13z"/>
<path d="M346 855 c-3 -9 -1 -79 6 -156 11 -128 13 -139 30 -133 11 3 26 0 34
-7 23 -19 29 -2 11 36 -9 20 -17 46 -17 58 0 12 -7 60 -16 107 -17 89 -36 126
-48 95z"/>
<path d="M1513 813 c-7 -2 -13 -12 -13 -21 0 -14 8 -16 45 -14 66 6 75 -6 75
-94 l0 -74 31 0 32 0 -6 74 c-6 85 -18 113 -53 126 -26 10 -90 12 -111 3z"/>
<path d="M1748 814 c-14 -4 -18 -17 -18 -60 l0 -54 34 0 c25 0 35 5 39 20 3
13 0 20 -9 20 -8 0 -14 9 -14 20 0 15 7 20 29 20 36 0 55 -23 55 -67 0 -46
-24 -63 -86 -63 -34 0 -48 -4 -48 -14 0 -28 78 -36 134 -12 58 24 74 122 27
170 -20 19 -104 31 -143 20z"/>
<path d="M1978 813 c-14 -4 -18 -15 -18 -59 l0 -54 40 0 c33 0 40 3 40 20 0
11 -4 20 -10 20 -5 0 -10 9 -10 20 0 15 7 20 28 20 38 0 52 -17 52 -61 0 -54
-22 -72 -82 -67 -39 2 -48 0 -48 -13 0 -31 75 -40 134 -15 68 28 72 147 6 181
-27 14 -94 18 -132 8z"/>
<path d="M2323 813 c-22 -4 -23 -9 -23 -104 l0 -99 95 0 94 0 7 36 c10 55 -1
124 -24 147 -21 21 -99 31 -149 20z m105 -45 c7 -7 12 -36 12 -65 l0 -53 -45
0 -45 0 0 65 0 65 33 0 c18 0 38 -5 45 -12z"/>
<path d="M2550 715 l0 -105 25 0 25 0 0 105 0 105 -25 0 -25 0 0 -105z"/>
<path d="M2673 813 c-26 -5 -32 -43 -8 -43 11 0 15 -12 15 -44 0 -53 -8 -76
-25 -76 -16 0 -27 -27 -14 -35 5 -4 23 -3 40 0 37 8 49 36 49 111 0 53 1 54
28 54 43 0 52 -17 52 -97 0 -71 1 -73 25 -73 25 0 25 1 25 83 0 106 -12 120
-103 123 -34 1 -72 0 -84 -3z"/>
<path d="M780 300 l0 -150 30 0 30 0 0 150 0 150 -30 0 -30 0 0 -150z"/>
<path d="M890 345 l0 -105 25 0 25 0 0 105 0 105 -25 0 -25 0 0 -105z"/>
<path d="M997 443 c-14 -14 -6 -32 16 -35 20 -3 22 -9 25 -65 3 -61 2 -63 -21
-63 -21 0 -37 -16 -37 -36 0 -2 25 -4 55 -4 l55 0 0 89 c0 82 -2 91 -22 105
-23 16 -60 21 -71 9z"/>
<path d="M1150 390 c0 -57 1 -60 25 -60 24 0 25 3 25 60 0 57 -1 60 -25 60
-24 0 -25 -3 -25 -60z"/>
<path d="M1250 430 c0 -16 7 -20 30 -20 24 0 31 -5 36 -27 7 -26 4 -30 -40
-58 -9 -5 -22 -27 -31 -47 l-15 -38 28 0 c23 0 30 6 37 33 6 17 15 32 20 32 6
0 11 -15 13 -32 3 -28 7 -33 28 -33 25 0 26 0 19 68 -3 37 -9 80 -12 95 -5 31
-34 47 -84 47 -22 0 -29 -5 -29 -20z"/>
<path d="M1538 444 c-19 -6 -25 -44 -8 -44 6 0 10 -25 10 -56 0 -47 -3 -57
-20 -61 -29 -8 -26 -43 4 -43 46 0 67 30 73 103 6 65 7 67 32 67 42 0 51 -17
51 -97 0 -71 1 -73 25 -73 25 0 25 1 25 79 0 109 -13 124 -106 127 -38 2 -77
0 -86 -2z"/>
<path d="M1780 345 l0 -105 30 0 30 0 0 105 0 105 -30 0 -30 0 0 -105z"/>
<path d="M1867 430 c-5 -18 0 -20 41 -20 l47 0 -4 -85 -3 -85 26 0 c26 0 26 1
26 80 0 69 3 81 20 90 11 6 20 17 20 25 0 12 -17 15 -84 15 -75 0 -84 -2 -89
-20z"/>
<path d="M2080 345 l0 -105 25 0 25 0 0 105 0 105 -25 0 -25 0 0 -105z"/>
<path d="M2183 444 c-7 -3 -13 -12 -13 -20 0 -10 12 -14 41 -14 61 0 79 -14
79 -60 0 -51 -20 -70 -76 -70 -37 0 -44 -3 -44 -20 0 -19 7 -20 90 -20 83 0
90 1 90 20 0 11 -7 20 -15 20 -12 0 -13 4 -5 19 16 31 12 96 -8 121 -14 18
-31 24 -73 26 -30 2 -60 1 -66 -2z"/>
<path d="M2411 370 c16 -44 29 -85 29 -91 0 -5 -13 -12 -30 -15 -31 -7 -35
-11 -22 -31 16 -25 142 19 162 56 5 11 13 51 16 90 l7 71 -32 0 -31 0 0 -74
c0 -41 -4 -77 -9 -80 -5 -4 -21 30 -36 74 -25 75 -28 80 -55 80 l-29 0 30 -80z"/>
<path d="M369 178 c-1 -2 -3 -35 -4 -75 l-1 -72 37 -16 c36 -17 59 -14 59 7 0
19 -70 158 -80 158 -6 0 -11 -1 -11 -2z"/>
</g>
</svg>
